<svg width="138" height="138" viewBox="0 0 138 138" fill="none" xmlns="http://www.w3.org/2000/svg">
<g clip-path="url(#clip0_1283_331)">
<path d="M88.1864 41.9339H88.1419C85.2484 43.0468 80.9748 44.6494 75.3658 46.7862L75.2768 46.7417C75.4548 46.8307 75.5884 46.9197 75.7664 47.0088C76.1226 47.1868 76.4342 47.3649 76.7903 47.543L77.3245 47.8101C77.6806 47.9881 77.9922 48.1662 78.3484 48.3888C78.4819 48.4778 78.66 48.5668 78.7935 48.6559C79.2832 48.923 79.7729 49.1901 80.2626 49.5017C80.4406 49.5907 80.6187 49.7243 80.7968 49.8133C81.2864 50.1249 81.8206 50.392 82.3103 50.7036C84.7142 52.1281 87.029 53.6417 89.2993 55.1552C90.2342 55.7785 91.169 56.4462 92.0593 57.0694C92.2819 57.203 92.46 57.381 92.6826 57.5146C93.2168 57.9152 93.7955 58.3159 94.3297 58.7165L95.9323 59.9185C96.511 60.3636 97.0452 60.7643 97.5793 61.2094C97.7129 61.2985 97.8464 61.432 97.98 61.521C99.9387 63.0791 101.808 64.6817 103.5 66.2843L103.634 66.4178C106.928 69.4449 109.821 72.5165 112.181 75.4991C112.403 75.7662 112.626 76.0333 112.804 76.3004L114.006 77.903C114.406 78.4372 114.763 78.9714 115.119 79.5056C116.677 81.9094 117.923 84.1797 118.769 86.361C118.947 86.8507 119.125 87.3404 119.259 87.7856C119.348 88.0081 119.392 88.2752 119.481 88.4978C119.615 88.943 119.704 89.4326 119.793 89.8778C119.882 90.323 119.926 90.7681 119.971 91.2133C120.238 93.6172 119.837 95.7984 118.769 97.6236C118.68 97.7572 118.591 97.9352 118.502 98.0688C118.457 98.1133 118.457 98.1578 118.413 98.2023C118.324 98.2914 118.279 98.4249 118.19 98.5139C118.146 98.5584 118.146 98.603 118.101 98.6475C118.012 98.781 117.879 98.9146 117.79 99.0481C117.656 99.1817 117.523 99.3152 117.434 99.4488L117.3 99.5823L117.033 99.8494L116.899 99.983C116.766 100.072 116.677 100.206 116.543 100.295C116.365 100.428 116.232 100.562 116.054 100.651C116.009 100.695 115.965 100.74 115.92 100.74C115.831 100.829 115.697 100.873 115.608 100.962C115.564 101.007 115.519 101.051 115.43 101.051C115.297 101.14 115.163 101.229 115.03 101.274C114.985 101.274 114.985 101.318 114.941 101.318C114.763 101.407 114.629 101.497 114.451 101.586C114.406 101.63 114.317 101.63 114.273 101.675C114.139 101.719 114.05 101.808 113.917 101.853C113.872 101.897 113.783 101.897 113.739 101.942C113.605 101.986 113.427 102.075 113.294 102.12C113.249 102.12 113.205 102.164 113.16 102.164C112.982 102.253 112.804 102.298 112.626 102.387L112.403 102.476L112.003 102.609C111.914 102.654 111.869 102.654 111.78 102.698C111.602 102.743 111.468 102.787 111.29 102.832C111.246 102.832 111.201 102.877 111.157 102.877C110.934 102.921 110.756 102.966 110.534 103.01C110.445 103.01 110.4 103.055 110.311 103.055C110.177 103.099 109.999 103.099 109.866 103.144L109.643 103.188C109.465 103.233 109.287 103.277 109.109 103.277H108.975C108.753 103.322 108.53 103.366 108.308 103.366C108.219 103.366 108.174 103.366 108.085 103.411C107.907 103.411 107.729 103.455 107.551 103.455C107.462 103.455 107.373 103.455 107.328 103.5C107.106 103.5 106.928 103.544 106.705 103.544H106.572C106.305 103.544 106.082 103.589 105.815 103.589H102.565C102.343 103.589 102.075 103.589 101.853 103.544H101.452C101.185 103.544 100.918 103.5 100.695 103.5C100.606 103.5 100.473 103.5 100.384 103.455C100.028 103.411 99.6271 103.411 99.271 103.366H99.0929C98.7813 103.322 98.4697 103.277 98.1581 103.277C98.0245 103.277 97.891 103.233 97.7574 103.233C97.4903 103.188 97.2232 103.144 96.9561 103.144C96.8226 103.144 96.689 103.099 96.511 103.099C96.2439 103.055 95.9768 103.01 95.6652 102.966L95.309 102.921C94.9084 102.877 94.5077 102.787 94.1071 102.698C94.0181 102.698 93.9735 102.654 93.8845 102.654C93.5284 102.609 93.2168 102.52 92.8606 102.476C92.7271 102.431 92.5935 102.431 92.4155 102.387C92.1484 102.342 91.8813 102.253 91.5697 102.209C91.4361 102.164 91.2581 102.12 91.08 102.12C90.8129 102.075 90.5013 101.986 90.2342 101.942C90.1006 101.897 89.9671 101.897 89.8335 101.853C89.4329 101.764 88.9877 101.63 88.5871 101.541C88.4981 101.541 88.4535 101.497 88.3645 101.497C88.231 101.452 88.0529 101.407 87.9193 101.363C87.8303 101.407 87.7858 101.452 87.6968 101.497C83.4677 103.945 79.1497 106.171 74.8316 108.085C99.6716 116.944 121.663 115.742 128.696 103.5C137.644 88.0972 119.57 60.9423 88.1864 41.9339ZM22.7032 58.0933C20.8781 55.2888 19.5426 52.5733 18.7413 50.0804C18.6522 49.8578 18.6077 49.5907 18.5187 49.3681C17.8955 47.0533 17.7619 44.872 18.1626 42.9578C18.2516 42.5572 18.3406 42.201 18.4742 41.8449C18.6522 41.3107 18.9193 40.7765 19.1864 40.2423C19.2755 40.1088 19.3645 39.9307 19.4535 39.7972C19.4981 39.7526 19.4981 39.7081 19.5426 39.6636C19.6316 39.5746 19.6761 39.441 19.7652 39.352C19.8097 39.3075 19.8097 39.263 19.8542 39.2185C19.9432 39.0849 20.0768 38.9514 20.1658 38.8178C20.2993 38.6843 20.3884 38.5507 20.5219 38.4172L20.6555 38.2836L20.9226 38.0165L21.0561 37.883C21.1897 37.7939 21.2787 37.6604 21.4122 37.5714L21.4568 37.5268C21.5903 37.4378 21.7239 37.3043 21.8574 37.2152C21.9019 37.1707 21.9464 37.1262 21.991 37.1262C22.08 37.0372 22.2135 36.9927 22.3026 36.9036C22.3471 36.8591 22.4361 36.8146 22.4806 36.8146C22.6142 36.7256 22.7477 36.681 22.8813 36.592C22.9258 36.5475 22.9703 36.5475 23.0148 36.503C23.1484 36.4139 23.3264 36.3249 23.46 36.2359C23.5045 36.1914 23.5935 36.1914 23.6381 36.1468C23.7716 36.1023 23.8606 36.0578 23.9942 35.9688C24.0832 35.9243 24.1277 35.9243 24.2168 35.8797C24.3503 35.8352 24.4839 35.7462 24.6174 35.7017C24.6619 35.6572 24.751 35.6572 24.7955 35.6126C24.9735 35.5681 25.1516 35.4791 25.3297 35.4346C25.4187 35.3901 25.4632 35.3901 25.5522 35.3456C25.6858 35.301 25.8193 35.2565 25.9084 35.212C25.9974 35.1675 26.0864 35.1675 26.131 35.123C26.2645 35.0785 26.4426 35.0339 26.5761 34.9894C26.6206 34.9894 26.7097 34.9449 26.7542 34.9449C26.9322 34.9004 27.1548 34.8559 27.3329 34.8114L27.6 34.7668C27.7335 34.7223 27.8671 34.7223 28.0006 34.6778C28.0897 34.6778 28.1787 34.6333 28.2677 34.6333C28.4458 34.5888 28.5793 34.5888 28.7574 34.5443C28.8019 34.5443 28.891 34.5443 28.9355 34.4997C29.1581 34.4552 29.3806 34.4552 29.6032 34.4107L29.8703 34.3662C30.0484 34.3662 30.1819 34.3217 30.36 34.3217C30.449 34.3217 30.5381 34.3217 30.6271 34.2772C30.8052 34.2772 31.0277 34.2326 31.2058 34.2326H31.3839C31.6064 34.2326 31.8735 34.1881 32.1406 34.1881H33.6542L36.3251 24.1275C23.5045 23.5488 13.4884 26.8875 9.17031 34.4107C4.49612 42.5572 7.30063 53.9533 15.6697 65.7501C17.851 63.2127 20.1658 60.6307 22.7032 58.0933Z" fill="white"/>
<path d="M69.0445 58.4941C62.189 58.4941 56.6245 64.0587 56.6245 70.9141C56.6245 75.3657 58.9839 79.4612 62.8123 81.687C66.6406 83.9128 71.4039 83.9128 75.2323 81.687C79.0606 79.4612 81.42 75.3657 81.42 70.9141C81.4645 64.0587 75.9 58.4941 69.0445 58.4941ZM56.669 108.219C56.8916 108.797 57.1142 109.376 57.3813 109.91C66.4626 107.195 76.0335 103.055 85.5155 97.5793C94.5523 92.3709 102.565 86.4503 109.243 80.307C109.065 80.0399 108.842 79.8174 108.664 79.5503C108.486 79.2832 108.263 79.0606 108.085 78.7935C106.438 76.7457 104.524 74.6535 102.432 72.5612C96.2884 78.0812 88.7652 83.5122 80.2626 88.4535C71.2703 93.6619 62.3226 97.5793 54.0871 100.161C54.8439 103.055 55.6897 105.77 56.669 108.219Z" fill="white"/>
<path d="M69 126.47C56.58 126.47 46.5194 100.74 46.5194 69C46.5194 64.6374 46.6974 60.4084 47.0536 56.3129C50.3923 53.9535 53.9981 51.6832 57.7374 49.5019C85.2039 33.6542 112.537 29.4697 118.769 40.2426C121.217 44.4716 120.015 50.3923 116.009 56.9361C118.546 59.4735 120.906 62.0555 123.043 64.6819C130.788 53.3303 133.281 42.3348 128.741 34.5C119.615 18.6968 85.471 21.3232 52.4845 40.3761C51.3271 41.0439 50.2142 41.7116 49.0568 42.4239C52.7961 24.0832 60.3194 11.5742 69 11.5742C74.1639 11.5742 78.9271 16.0258 82.711 23.5045C86.1832 22.5697 89.5665 21.8574 92.8607 21.3232C86.851 8.19097 78.3929 0 69 0C53.7755 0 40.9994 21.4123 37.1265 50.6148C13.8 68.5103 1.64711 90.3232 9.25937 103.5C13.9336 111.646 25.2852 114.896 39.6194 113.516C38.4174 110.4 37.349 107.061 36.4142 103.634C28.0452 104.079 21.8129 102.209 19.231 97.7129C14.9129 90.1897 21.991 77.4581 36.0136 64.9935C35.969 66.329 35.969 67.62 35.969 68.9555C35.969 107.061 50.7484 137.955 69.0445 137.955C78.1258 137.955 86.3613 130.299 92.3265 117.923C88.9878 117.389 85.6045 116.632 82.1323 115.697C78.3929 122.508 73.8968 126.47 69 126.47Z" fill="white"/>
</g>
<defs>
<clipPath id="clip0_1283_331">
<rect width="138" height="138" fill="white"/>
</clipPath>
</defs>
</svg>
