<svg width="33" height="33" viewBox="0 0 33 33" fill="none" xmlns="http://www.w3.org/2000/svg">
<path d="M25.5858 26.9355C14.0955 26.9518 5.37493 18.1268 5.38722 6.7369C5.38722 5.99308 5.9902 5.38672 6.73402 5.38672H10.2887C10.9561 5.38672 11.5231 5.87713 11.6211 6.53733C11.856 8.11964 12.3167 9.66008 12.9892 11.1116L13.1276 11.4103C13.32 11.8257 13.1896 12.3192 12.8171 12.5852C11.7162 13.3714 11.2955 14.9538 12.1531 16.1885C13.2293 17.738 14.5859 19.0943 16.135 20.17C17.3697 21.0274 18.9519 20.6068 19.7381 19.5061C20.0043 19.1334 20.4981 19.0029 20.9137 19.1954L21.211 19.3331C22.6626 20.0056 24.2032 20.4663 25.7856 20.7011C26.4459 20.7991 26.936 21.3661 26.936 22.0335V25.5887C26.936 26.3325 26.3316 26.9355 25.5878 26.9355L25.5858 26.9355Z" fill="#E2E6EE"/>
</svg>
