<svg width="33" height="33" viewBox="0 0 33 33" fill="none" xmlns="http://www.w3.org/2000/svg">
<path fill-rule="evenodd" clip-rule="evenodd" d="M25.4357 14.9265C25.3298 8.94293 20.4463 4.125 14.4375 4.125C8.36234 4.125 3.4375 9.04984 3.4375 15.125C3.4375 17.9919 4.53428 20.6027 6.33113 22.5606L5.50717 27.5177L10.3984 25.4168C12.5535 26.1334 14.5874 26.3125 16.5 25.9542" fill="#E2E6EE"/>
<path d="M25.4357 14.9265C25.3298 8.94293 20.4463 4.125 14.4375 4.125C8.36234 4.125 3.4375 9.04984 3.4375 15.125C3.4375 17.9919 4.53428 20.6027 6.33113 22.5606L5.50717 27.5177L10.3984 25.4168C12.5535 26.1334 14.5874 26.3125 16.5 25.9542" stroke="#E2E6EE" stroke-linecap="round" stroke-linejoin="round"/>
<path d="M10.3984 14.0708C11.2527 14.0708 11.9453 13.3731 11.9453 12.5125C11.9453 11.6518 11.2527 10.9541 10.3984 10.9541C9.54415 10.9541 8.85156 11.6518 8.85156 12.5125C8.85156 13.3731 9.54415 14.0708 10.3984 14.0708Z" fill="#47516B"/>
<path d="M16.5859 14.0708C17.4402 14.0708 18.1328 13.3731 18.1328 12.5125C18.1328 11.6518 17.4402 10.9541 16.5859 10.9541C15.7316 10.9541 15.0391 11.6518 15.0391 12.5125C15.0391 13.3731 15.7316 14.0708 16.5859 14.0708Z" fill="#47516B"/>
<path fill-rule="evenodd" clip-rule="evenodd" d="M26.6487 27.4514C25.4468 28.3458 23.9571 28.875 22.3438 28.875C18.3569 28.875 15.125 25.6431 15.125 21.6562C15.125 17.6694 18.3569 14.4375 22.3438 14.4375C26.3306 14.4375 29.5625 17.6694 29.5625 21.6562C29.5625 22.756 29.3166 23.7984 28.8766 24.7313" fill="#E2E6EE"/>
<path d="M26.6487 27.4514C25.4468 28.3458 23.9571 28.875 22.3438 28.875C18.3569 28.875 15.125 25.6431 15.125 21.6562C15.125 17.6694 18.3569 14.4375 22.3438 14.4375C26.3306 14.4375 29.5625 17.6694 29.5625 21.6562C29.5625 22.756 29.3166 23.7984 28.8766 24.7313" stroke="#E2E6EE" stroke-linecap="round" stroke-linejoin="round"/>
<path fill-rule="evenodd" clip-rule="evenodd" d="M28.8766 24.7314L29.5624 28.8751L26.6487 27.4515" fill="#E2E6EE"/>
<path d="M28.8766 24.7314L29.5624 28.8751L26.6487 27.4515" stroke="#E2E6EE" stroke-linecap="round" stroke-linejoin="round"/>
<path d="M24.5352 21.1754C23.8944 21.1754 23.375 20.6521 23.375 20.0066C23.375 19.3611 23.8944 18.8379 24.5352 18.8379C25.1759 18.8379 25.6953 19.3611 25.6953 20.0066C25.6953 20.6521 25.1759 21.1754 24.5352 21.1754Z" fill="#47516B"/>
<path d="M19.8945 21.1754C19.2538 21.1754 18.7344 20.6521 18.7344 20.0066C18.7344 19.3611 19.2538 18.8379 19.8945 18.8379C20.5353 18.8379 21.0547 19.3611 21.0547 20.0066C21.0547 20.6521 20.5353 21.1754 19.8945 21.1754Z" fill="#47516B"/>
</svg>
