<svg width="35" height="35" viewBox="0 0 35 35" fill="none" xmlns="http://www.w3.org/2000/svg">
<path d="M22.3662 10.6355H22.3549C21.621 10.9178 20.5372 11.3242 19.1146 11.8662L19.092 11.8549C19.1372 11.8774 19.171 11.9 19.2162 11.9226C19.3065 11.9678 19.3856 12.0129 19.4759 12.0581L19.6114 12.1258C19.7017 12.171 19.7807 12.2162 19.871 12.2726C19.9049 12.2952 19.9501 12.3178 19.9839 12.3404C20.1081 12.4081 20.2323 12.4758 20.3565 12.5549C20.4017 12.5774 20.4468 12.6113 20.492 12.6339C20.6162 12.7129 20.7517 12.7807 20.8759 12.8597C21.4856 13.221 22.0726 13.6049 22.6485 13.9887C22.8856 14.1468 23.1226 14.3162 23.3485 14.4742C23.4049 14.5081 23.4501 14.5533 23.5065 14.5871C23.642 14.6887 23.7888 14.7904 23.9243 14.892L24.3307 15.1968C24.4775 15.3097 24.613 15.4113 24.7485 15.5242C24.7823 15.5468 24.8162 15.5807 24.8501 15.6033C25.3468 15.9984 25.821 16.4049 26.2501 16.8113L26.2839 16.8452C27.1194 17.6129 27.8533 18.392 28.4517 19.1484C28.5081 19.2162 28.5646 19.2839 28.6097 19.3516L28.9146 19.7581C29.0162 19.8936 29.1065 20.0291 29.1968 20.1645C29.592 20.7742 29.9081 21.35 30.1226 21.9033C30.1678 22.0274 30.213 22.1516 30.2468 22.2645C30.2694 22.321 30.2807 22.3887 30.3033 22.4452C30.3372 22.5581 30.3597 22.6823 30.3823 22.7952C30.4049 22.9081 30.4162 23.021 30.4275 23.1339C30.4952 23.7436 30.3936 24.2968 30.1226 24.7597C30.1001 24.7936 30.0775 24.8387 30.0549 24.8726C30.0436 24.8839 30.0436 24.8952 30.0323 24.9065C30.0097 24.9291 29.9985 24.9629 29.9759 24.9855C29.9646 24.9968 29.9646 25.0081 29.9533 25.0194C29.9307 25.0533 29.8968 25.0871 29.8743 25.121C29.8404 25.1549 29.8065 25.1887 29.7839 25.2226L29.7501 25.2565L29.6823 25.3242L29.6485 25.3581C29.6146 25.3807 29.592 25.4145 29.5581 25.4371C29.513 25.471 29.4791 25.5049 29.4339 25.5274C29.4226 25.5387 29.4114 25.55 29.4001 25.55C29.3775 25.5726 29.3436 25.5839 29.321 25.6065C29.3097 25.6178 29.2985 25.6291 29.2759 25.6291C29.242 25.6516 29.2081 25.6742 29.1743 25.6855C29.163 25.6855 29.163 25.6968 29.1517 25.6968C29.1065 25.7194 29.0726 25.742 29.0275 25.7645C29.0162 25.7758 28.9936 25.7758 28.9823 25.7871C28.9485 25.7984 28.9259 25.821 28.892 25.8323C28.8807 25.8436 28.8581 25.8436 28.8468 25.8549C28.813 25.8662 28.7678 25.8887 28.7339 25.9C28.7226 25.9 28.7114 25.9113 28.7001 25.9113C28.6549 25.9339 28.6097 25.9452 28.5646 25.9678L28.5081 25.9904L28.4065 26.0242C28.3839 26.0355 28.3726 26.0355 28.3501 26.0468C28.3049 26.0581 28.271 26.0694 28.2259 26.0807C28.2146 26.0807 28.2033 26.092 28.192 26.092C28.1356 26.1033 28.0904 26.1145 28.0339 26.1258C28.0114 26.1258 28.0001 26.1371 27.9775 26.1371C27.9436 26.1484 27.8985 26.1484 27.8646 26.1597L27.8081 26.171C27.763 26.1823 27.7178 26.1936 27.6726 26.1936H27.6388C27.5823 26.2049 27.5259 26.2162 27.4694 26.2162C27.4468 26.2162 27.4356 26.2162 27.413 26.2274C27.3678 26.2274 27.3226 26.2387 27.2775 26.2387C27.2549 26.2387 27.2323 26.2387 27.221 26.25C27.1646 26.25 27.1194 26.2613 27.063 26.2613H27.0291C26.9614 26.2613 26.9049 26.2726 26.8372 26.2726H26.013C25.9565 26.2726 25.8888 26.2726 25.8323 26.2613H25.7307C25.663 26.2613 25.5952 26.25 25.5388 26.25C25.5162 26.25 25.4823 26.25 25.4597 26.2387C25.3694 26.2274 25.2678 26.2274 25.1775 26.2162H25.1323C25.0533 26.2049 24.9743 26.1936 24.8952 26.1936C24.8614 26.1936 24.8275 26.1823 24.7936 26.1823C24.7259 26.171 24.6581 26.1597 24.5904 26.1597C24.5565 26.1597 24.5226 26.1484 24.4775 26.1484C24.4097 26.1371 24.342 26.1258 24.263 26.1145L24.1726 26.1033C24.071 26.092 23.9694 26.0694 23.8678 26.0468C23.8452 26.0468 23.8339 26.0355 23.8114 26.0355C23.721 26.0242 23.642 26.0016 23.5517 25.9904C23.5178 25.9791 23.4839 25.9791 23.4388 25.9678C23.371 25.9565 23.3033 25.9339 23.2243 25.9226C23.1904 25.9113 23.1452 25.9 23.1001 25.9C23.0323 25.8887 22.9533 25.8662 22.8855 25.8549C22.8517 25.8436 22.8178 25.8436 22.7839 25.8323C22.6823 25.8097 22.5694 25.7758 22.4678 25.7533C22.4452 25.7533 22.4339 25.742 22.4114 25.742C22.3775 25.7307 22.3323 25.7194 22.2985 25.7081C22.2759 25.7194 22.2646 25.7307 22.242 25.742C21.1694 26.3629 20.0743 26.9274 18.9791 27.4129C25.2791 29.6597 30.8565 29.3549 32.6404 26.25C34.9097 22.3436 30.3259 15.4565 22.3662 10.6355ZM5.75813 14.7339C5.29523 14.0226 4.95652 13.3339 4.75329 12.7016C4.73071 12.6452 4.71942 12.5774 4.69684 12.521C4.53878 11.9339 4.50491 11.3807 4.60652 10.8952C4.6291 10.7936 4.65168 10.7033 4.68555 10.6129C4.73071 10.4774 4.79845 10.342 4.8662 10.2065C4.88878 10.1726 4.91136 10.1274 4.93394 10.0936C4.94523 10.0823 4.94523 10.071 4.95652 10.0597C4.9791 10.0371 4.99039 10.0033 5.01297 9.98067C5.02426 9.96938 5.02426 9.95809 5.03555 9.9468C5.05813 9.91293 5.092 9.87906 5.11458 9.84519C5.14845 9.81132 5.17103 9.77745 5.20491 9.74358L5.23878 9.70971L5.30652 9.64197L5.34039 9.60809C5.37426 9.58551 5.39684 9.55164 5.43071 9.52906L5.442 9.51777C5.47587 9.49519 5.50974 9.46132 5.54361 9.43874C5.55491 9.42745 5.5662 9.41616 5.57749 9.41616C5.60007 9.39358 5.63394 9.38229 5.65652 9.35971C5.66781 9.34842 5.69039 9.33713 5.70168 9.33713C5.73555 9.31455 5.76942 9.30325 5.80329 9.28067C5.81458 9.26938 5.82587 9.26938 5.83716 9.25809C5.87103 9.23551 5.9162 9.21293 5.95007 9.19035C5.96136 9.17906 5.98394 9.17906 5.99523 9.16777C6.0291 9.15648 6.05168 9.14519 6.08555 9.12261C6.10813 9.11132 6.11942 9.11132 6.142 9.10003C6.17587 9.08874 6.20974 9.06616 6.24362 9.05487C6.25491 9.04358 6.27749 9.04358 6.28878 9.03229C6.33394 9.021 6.3791 8.99842 6.42426 8.98713C6.44684 8.97584 6.45813 8.97584 6.48071 8.96455C6.51458 8.95325 6.54845 8.94196 6.57103 8.93067C6.59362 8.91938 6.6162 8.91938 6.62749 8.90809C6.66136 8.8968 6.70652 8.88551 6.74039 8.87422C6.75168 8.87422 6.77426 8.86293 6.78555 8.86293C6.83071 8.85164 6.88716 8.84035 6.93233 8.82906L7.00007 8.81777C7.03394 8.80648 7.06781 8.80648 7.10168 8.79519C7.12426 8.79519 7.14684 8.7839 7.16942 8.7839C7.21458 8.77261 7.24845 8.77261 7.29362 8.76132C7.30491 8.76132 7.32749 8.76132 7.33878 8.75003C7.39523 8.73874 7.45168 8.73874 7.50813 8.72745L7.57587 8.71616C7.62103 8.71616 7.65491 8.70487 7.70007 8.70487C7.72265 8.70487 7.74523 8.70487 7.76781 8.69358C7.81297 8.69358 7.86942 8.68229 7.91458 8.68229H7.95974C8.0162 8.68229 8.08394 8.671 8.15168 8.671H8.53555L9.21297 6.11938C5.96136 5.97261 3.42103 6.81938 2.32587 8.72745C1.14039 10.7936 1.85168 13.6839 3.97426 16.6758C4.52749 16.0323 5.11458 15.3774 5.75813 14.7339Z" fill="white"/>
<path d="M17.5113 14.8354C15.7726 14.8354 14.3613 16.2467 14.3613 17.9854C14.3613 19.1145 14.9597 20.1532 15.9307 20.7177C16.9016 21.2822 18.1097 21.2822 19.0807 20.7177C20.0516 20.1532 20.65 19.1145 20.65 17.9854C20.6613 16.2467 19.25 14.8354 17.5113 14.8354ZM14.3726 27.4467C14.4291 27.5935 14.4855 27.7403 14.5533 27.8758C16.8565 27.1871 19.2839 26.1371 21.6887 24.7484C23.9807 23.4274 26.0129 21.9258 27.7065 20.3677C27.6613 20.3 27.6049 20.2435 27.5597 20.1758C27.5145 20.108 27.4581 20.0516 27.4129 19.9838C26.9952 19.4645 26.5097 18.9338 25.9791 18.4032C24.421 19.8032 22.5129 21.1806 20.3565 22.4338C18.0758 23.7548 15.8065 24.7484 13.7178 25.4032C13.9097 26.1371 14.1242 26.8258 14.3726 27.4467Z" fill="white"/>
<path d="M17.5001 32.0758C14.3501 32.0758 11.7985 25.55 11.7985 17.5C11.7985 16.3935 11.8436 15.321 11.934 14.2823C12.7807 13.6839 13.6952 13.1081 14.6436 12.5548C21.6098 8.53548 28.542 7.47419 30.1227 10.2065C30.7436 11.279 30.4388 12.7806 29.4227 14.4403C30.0662 15.0839 30.6646 15.7387 31.2065 16.4048C33.171 13.5258 33.8033 10.7371 32.6517 8.75C30.3372 4.74194 21.6775 5.40806 13.3114 10.2403C13.0178 10.4097 12.7356 10.579 12.442 10.7597C13.3904 6.10807 15.2985 2.93548 17.5001 2.93548C18.8098 2.93548 20.0178 4.06452 20.9775 5.96129C21.8581 5.72419 22.7162 5.54355 23.5517 5.40806C22.0275 2.07742 19.8823 0 17.5001 0C13.6388 0 10.3985 5.43064 9.41621 12.8371C3.50008 17.3758 0.417822 22.9081 2.34847 26.25C3.53395 28.3161 6.41298 29.1403 10.0485 28.7903C9.74363 28 9.47266 27.1532 9.23556 26.2839C7.11298 26.3968 5.53234 25.9226 4.8775 24.7823C3.78234 22.8742 5.5775 19.6452 9.13395 16.4839C9.12266 16.8226 9.12266 17.15 9.12266 17.4887C9.12266 27.1532 12.871 34.9887 17.5114 34.9887C19.8146 34.9887 21.9033 33.0468 23.4162 29.9081C22.5694 29.7726 21.7114 29.5806 20.8307 29.3435C19.8823 31.071 18.742 32.0758 17.5001 32.0758Z" fill="white"/>
</svg>
