<svg width="37" height="52" viewBox="0 0 37 52" fill="none" xmlns="http://www.w3.org/2000/svg">
<g clip-path="url(#clip0_83_8215)">
<path d="M20.3433 51.9934H16.6511C7.54348 51.9934 0.123779 44.4544 0.123779 35.2005V16.8891C0.123779 7.63513 7.54348 0.0961914 16.6511 0.0961914H20.3433C29.4509 0.0961914 36.8706 7.63513 36.8706 16.8891V35.2005C36.8706 44.4723 29.4509 51.9934 20.3433 51.9934ZM16.6511 4.56238C9.96983 4.56238 4.51934 10.1005 4.51934 16.8891V35.2005C4.51934 41.9891 9.96983 47.5272 16.6511 47.5272H20.3433C27.0246 47.5272 32.4751 41.9891 32.4751 35.2005V16.8891C32.4751 10.1005 27.0246 4.56238 20.3433 4.56238H16.6511Z" fill="white" fill-opacity="0.8"/>
<path d="M16.2115 9.11768H20.6071V20.9084H16.2115V9.11768Z" fill="white" fill-opacity="0.8"/>
</g>
<defs>
<clipPath id="clip0_83_8215">
<rect width="37" height="52" fill="white"/>
</clipPath>
</defs>
</svg>
