<svg width="37" height="52" viewBox="0 0 37 52" fill="none" xmlns="http://www.w3.org/2000/svg">
<g clip-path="url(#clip0_146_80)">
<path d="M20.3589 52H16.6411C7.47081 52 0 44.4461 0 35.1738V16.8262C0 7.55387 7.47081 6.87593e-10 16.6411 0H20.3589C29.5292 0 37 7.55387 37 16.8262V35.1738C37 44.464 29.5292 52 20.3589 52ZM16.6411 4.47504C9.91388 4.47504 4.42584 10.0241 4.42584 16.8262V35.1738C4.42584 41.9759 9.91388 47.525 16.6411 47.525H20.3589C27.0861 47.525 32.5742 41.9759 32.5742 35.1738V16.8262C32.5742 10.0241 27.0861 4.47504 20.3589 4.47504H16.6411Z" fill="white" fill-opacity="0.8"/>
<path d="M16 9H21V21H16V9Z" fill="white" fill-opacity="0.8"/>
</g>
<defs>
<clipPath id="clip0_146_80">
<rect width="37" height="52" fill="white"/>
</clipPath>
</defs>
</svg>
