<svg width="35" height="35" viewBox="0 0 35 35" fill="none" xmlns="http://www.w3.org/2000/svg">
<path d="M22.3661 10.6355H22.3548C21.621 10.9177 20.5371 11.3242 19.1145 11.8661L19.0919 11.8548C19.1371 11.8774 19.171 11.9 19.2161 11.9226C19.3065 11.9677 19.3855 12.0129 19.4758 12.0581L19.6113 12.1258C19.7016 12.171 19.7807 12.2161 19.871 12.2726C19.9048 12.2952 19.95 12.3177 19.9839 12.3403C20.1081 12.4081 20.2323 12.4758 20.3565 12.5548C20.4016 12.5774 20.4468 12.6113 20.4919 12.6339C20.6161 12.7129 20.7516 12.7806 20.8758 12.8597C21.4855 13.221 22.0726 13.6048 22.6484 13.9887C22.8855 14.1468 23.1226 14.3161 23.3484 14.4742C23.4048 14.5081 23.45 14.5532 23.5065 14.5871C23.6419 14.6887 23.7887 14.7903 23.9242 14.8919L24.3307 15.1968C24.4774 15.3097 24.6129 15.4113 24.7484 15.5242C24.7823 15.5468 24.8161 15.5806 24.85 15.6032C25.3468 15.9984 25.821 16.4048 26.25 16.8113L26.2839 16.8452C27.1194 17.6129 27.8532 18.3919 28.4516 19.1484C28.5081 19.2161 28.5645 19.2839 28.6097 19.3516L28.9145 19.7581C29.0161 19.8935 29.1065 20.029 29.1968 20.1645C29.5919 20.7742 29.9081 21.35 30.1226 21.9032C30.1677 22.0274 30.2129 22.1516 30.2468 22.2645C30.2694 22.321 30.2807 22.3887 30.3032 22.4452C30.3371 22.5581 30.3597 22.6823 30.3823 22.7952C30.4048 22.9081 30.4161 23.021 30.4274 23.1339C30.4952 23.7436 30.3936 24.2968 30.1226 24.7597C30.1 24.7935 30.0774 24.8387 30.0548 24.8726C30.0436 24.8839 30.0436 24.8952 30.0323 24.9065C30.0097 24.929 29.9984 24.9629 29.9758 24.9855C29.9645 24.9968 29.9645 25.0081 29.9532 25.0194C29.9307 25.0532 29.8968 25.0871 29.8742 25.121C29.8403 25.1548 29.8065 25.1887 29.7839 25.2226L29.75 25.2565L29.6823 25.3242L29.6484 25.3581C29.6145 25.3806 29.5919 25.4145 29.5581 25.4371C29.5129 25.471 29.479 25.5048 29.4339 25.5274C29.4226 25.5387 29.4113 25.55 29.4 25.55C29.3774 25.5726 29.3436 25.5839 29.321 25.6065C29.3097 25.6177 29.2984 25.629 29.2758 25.629C29.2419 25.6516 29.2081 25.6742 29.1742 25.6855C29.1629 25.6855 29.1629 25.6968 29.1516 25.6968C29.1065 25.7194 29.0726 25.7419 29.0274 25.7645C29.0161 25.7758 28.9936 25.7758 28.9823 25.7871C28.9484 25.7984 28.9258 25.821 28.8919 25.8323C28.8807 25.8435 28.8581 25.8435 28.8468 25.8548C28.8129 25.8661 28.7677 25.8887 28.7339 25.9C28.7226 25.9 28.7113 25.9113 28.7 25.9113C28.6548 25.9339 28.6097 25.9452 28.5645 25.9677L28.5081 25.9903L28.4065 26.0242C28.3839 26.0355 28.3726 26.0355 28.35 26.0468C28.3048 26.0581 28.271 26.0694 28.2258 26.0806C28.2145 26.0806 28.2032 26.0919 28.1919 26.0919C28.1355 26.1032 28.0903 26.1145 28.0339 26.1258C28.0113 26.1258 28 26.1371 27.9774 26.1371C27.9436 26.1484 27.8984 26.1484 27.8645 26.1597L27.8081 26.171C27.7629 26.1823 27.7177 26.1935 27.6726 26.1935H27.6387C27.5823 26.2048 27.5258 26.2161 27.4694 26.2161C27.4468 26.2161 27.4355 26.2161 27.4129 26.2274C27.3678 26.2274 27.3226 26.2387 27.2774 26.2387C27.2548 26.2387 27.2323 26.2387 27.221 26.25C27.1645 26.25 27.1194 26.2613 27.0629 26.2613H27.029C26.9613 26.2613 26.9048 26.2726 26.8371 26.2726H26.0129C25.9565 26.2726 25.8887 26.2726 25.8323 26.2613H25.7307C25.6629 26.2613 25.5952 26.25 25.5387 26.25C25.5161 26.25 25.4823 26.25 25.4597 26.2387C25.3694 26.2274 25.2677 26.2274 25.1774 26.2161H25.1323C25.0532 26.2048 24.9742 26.1935 24.8952 26.1935C24.8613 26.1935 24.8274 26.1823 24.7936 26.1823C24.7258 26.171 24.6581 26.1597 24.5903 26.1597C24.5565 26.1597 24.5226 26.1484 24.4774 26.1484C24.4097 26.1371 24.3419 26.1258 24.2629 26.1145L24.1726 26.1032C24.071 26.0919 23.9694 26.0694 23.8677 26.0468C23.8452 26.0468 23.8339 26.0355 23.8113 26.0355C23.721 26.0242 23.6419 26.0016 23.5516 25.9903C23.5177 25.979 23.4839 25.979 23.4387 25.9677C23.371 25.9565 23.3032 25.9339 23.2242 25.9226C23.1903 25.9113 23.1452 25.9 23.1 25.9C23.0323 25.8887 22.9532 25.8661 22.8855 25.8548C22.8516 25.8435 22.8177 25.8435 22.7839 25.8323C22.6823 25.8097 22.5694 25.7758 22.4677 25.7532C22.4452 25.7532 22.4339 25.7419 22.4113 25.7419C22.3774 25.7306 22.3323 25.7194 22.2984 25.7081C22.2758 25.7194 22.2645 25.7306 22.2419 25.7419C21.1694 26.3629 20.0742 26.9274 18.979 27.4129C25.279 29.6597 30.8565 29.3548 32.6403 26.25C34.9097 22.3435 30.3258 15.4565 22.3661 10.6355ZM5.75807 14.7339C5.29517 14.0226 4.95646 13.3339 4.75323 12.7016C4.73065 12.6452 4.71936 12.5774 4.69678 12.521C4.53872 11.9339 4.50484 11.3806 4.60646 10.8952C4.62904 10.7935 4.65162 10.7032 4.68549 10.6129C4.73065 10.4774 4.79839 10.3419 4.86613 10.2065C4.88872 10.1726 4.9113 10.1274 4.93388 10.0935C4.94517 10.0823 4.94517 10.071 4.95646 10.0597C4.97904 10.0371 4.99033 10.0032 5.01291 9.98065C5.0242 9.96936 5.0242 9.95807 5.03549 9.94677C5.05807 9.9129 5.09194 9.87903 5.11452 9.84516C5.14839 9.81129 5.17097 9.77742 5.20484 9.74355L5.23872 9.70968L5.30646 9.64194L5.34033 9.60807C5.3742 9.58548 5.39678 9.55161 5.43065 9.52903L5.44194 9.51774C5.47581 9.49516 5.50968 9.46129 5.54355 9.43871C5.55484 9.42742 5.56613 9.41613 5.57742 9.41613C5.60001 9.39355 5.63388 9.38226 5.65646 9.35968C5.66775 9.34839 5.69033 9.3371 5.70162 9.3371C5.73549 9.31452 5.76936 9.30323 5.80323 9.28065C5.81452 9.26936 5.82581 9.26936 5.8371 9.25806C5.87097 9.23548 5.91613 9.2129 5.95001 9.19032C5.9613 9.17903 5.98388 9.17903 5.99517 9.16774C6.02904 9.15645 6.05162 9.14516 6.08549 9.12258C6.10807 9.11129 6.11936 9.11129 6.14194 9.1C6.17581 9.08871 6.20968 9.06613 6.24355 9.05484C6.25484 9.04355 6.27742 9.04355 6.28872 9.03226C6.33388 9.02097 6.37904 8.99839 6.4242 8.9871C6.44678 8.97581 6.45807 8.97581 6.48065 8.96452C6.51452 8.95323 6.54839 8.94194 6.57097 8.93065C6.59355 8.91936 6.61613 8.91936 6.62743 8.90807C6.6613 8.89677 6.70646 8.88548 6.74033 8.87419C6.75162 8.87419 6.7742 8.8629 6.78549 8.8629C6.83065 8.85161 6.8871 8.84032 6.93226 8.82903L7.00001 8.81774C7.03388 8.80645 7.06775 8.80645 7.10162 8.79516C7.1242 8.79516 7.14678 8.78387 7.16936 8.78387C7.21452 8.77258 7.24839 8.77258 7.29355 8.76129C7.30484 8.76129 7.32743 8.76129 7.33872 8.75C7.39517 8.73871 7.45162 8.73871 7.50807 8.72742L7.57581 8.71613C7.62097 8.71613 7.65484 8.70484 7.70001 8.70484C7.72259 8.70484 7.74517 8.70484 7.76775 8.69355C7.81291 8.69355 7.86936 8.68226 7.91452 8.68226H7.95968C8.01614 8.68226 8.08388 8.67097 8.15162 8.67097H8.53549L9.21291 6.11936C5.9613 5.97258 3.42097 6.81936 2.32581 8.72742C1.14033 10.7935 1.85162 13.6839 3.9742 16.6758C4.52742 16.0323 5.11452 15.3774 5.75807 14.7339Z" fill="white"/>
<path d="M17.5113 14.8355C15.7726 14.8355 14.3613 16.2468 14.3613 17.9855C14.3613 19.1145 14.9597 20.1532 15.9306 20.7177C16.9016 21.2823 18.1097 21.2823 19.0806 20.7177C20.0516 20.1532 20.65 19.1145 20.65 17.9855C20.6613 16.2468 19.25 14.8355 17.5113 14.8355ZM14.3726 27.4468C14.429 27.5935 14.4855 27.7403 14.5532 27.8758C16.8565 27.1871 19.2839 26.1371 21.6887 24.7484C23.9806 23.4274 26.0129 21.9258 27.7065 20.3677C27.6613 20.3 27.6048 20.2435 27.5597 20.1758C27.5145 20.1081 27.4581 20.0516 27.4129 19.9839C26.9952 19.4645 26.5097 18.9339 25.979 18.4032C24.421 19.8032 22.5129 21.1806 20.3565 22.4339C18.0758 23.7548 15.8065 24.7484 13.7177 25.4032C13.9097 26.1371 14.1242 26.8258 14.3726 27.4468Z" fill="white"/>
<path d="M17.5 32.0758C14.35 32.0758 11.7984 25.55 11.7984 17.5C11.7984 16.3935 11.8436 15.321 11.9339 14.2823C12.7806 13.6839 13.6952 13.1081 14.6436 12.5548C21.6097 8.53548 28.5419 7.47419 30.1226 10.2065C30.7436 11.279 30.4387 12.7806 29.4226 14.4403C30.0661 15.0839 30.6645 15.7387 31.2065 16.4048C33.171 13.5258 33.8032 10.7371 32.6516 8.75C30.3371 4.74194 21.6774 5.40806 13.3113 10.2403C13.0177 10.4097 12.7355 10.579 12.4419 10.7597C13.3903 6.10807 15.2984 2.93548 17.5 2.93548C18.8097 2.93548 20.0177 4.06452 20.9774 5.96129C21.8581 5.72419 22.7161 5.54355 23.5516 5.40806C22.0274 2.07742 19.8823 0 17.5 0C13.6387 0 10.3984 5.43064 9.41613 12.8371C3.5 17.3758 0.417746 22.9081 2.34839 26.25C3.53387 28.3161 6.41291 29.1403 10.0484 28.7903C9.74355 28 9.47258 27.1532 9.23549 26.2839C7.11291 26.3968 5.53226 25.9226 4.87742 24.7823C3.78226 22.8742 5.57742 19.6452 9.13387 16.4839C9.12258 16.8226 9.12258 17.15 9.12258 17.4887C9.12258 27.1532 12.871 34.9887 17.5113 34.9887C19.8145 34.9887 21.9032 33.0468 23.4161 29.9081C22.5694 29.7726 21.7113 29.5806 20.8307 29.3435C19.8823 31.071 18.7419 32.0758 17.5 32.0758Z" fill="white"/>
</svg>
